# xmcd
# Copyright (C) 1995-1998 Ti Kan
#
# Track frame offsets:
#       150
#       22973
#       36558
#
# Disc length: 755 seconds
#
# Revision: 2
# Processed by: cddbd v1.5.2PL0 Copyright (c) Steve Scherf et al.
# Submitted via: CD-Import v1.0
#
DISCID=1e02f103
DTITLE=Mick Jagger/Lenny Kravitz - Lied Der Woche
DYEAR=1900
DGENRE=
TTITLE0=Use Me
TTITLE1=Use Me 
TTITLE2=Use Me
EXTD=
EXTT0=
EXTT1=
EXTT2=
PLAYORDER=
